<svg width="21" height="20" viewBox="0 0 21 20" fill="none" xmlns="http://www.w3.org/2000/svg">
<path fill-rule="evenodd" clip-rule="evenodd" d="M10.3335 0C7.61766 0 7.27766 0.0116667 6.211 0.06C2.57933 0.226667 0.560996 2.24167 0.394329 5.87667C0.345163 6.94417 0.333496 7.28417 0.333496 10C0.333496 12.7158 0.345163 13.0567 0.393496 14.1233C0.560163 17.755 2.57516 19.7733 6.21016 19.94C7.27766 19.9883 7.61766 20 10.3335 20C13.0493 20 13.3902 19.9883 14.4568 19.94C18.0852 19.7733 20.1085 17.7583 20.2727 14.1233C20.3218 13.0567 20.3335 12.7158 20.3335 10C20.3335 7.28417 20.3218 6.94417 20.2735 5.8775C20.1102 2.24917 18.0927 0.2275 14.4577 0.0608333C13.3902 0.0116667 13.0493 0 10.3335 0ZM10.3335 1.8025C13.0035 1.8025 13.3202 1.8125 14.3752 1.86083C17.0852 1.98417 18.351 3.27 18.4743 5.96C18.5227 7.01417 18.5318 7.33083 18.5318 10.0008C18.5318 12.6717 18.5218 12.9875 18.4743 14.0417C18.3502 16.7292 17.0877 18.0175 14.3752 18.1408C13.3202 18.1892 13.0052 18.1992 10.3335 18.1992C7.6635 18.1992 7.34683 18.1892 6.29266 18.1408C3.576 18.0167 2.31683 16.725 2.1935 14.0408C2.14516 12.9867 2.13516 12.6708 2.13516 10C2.13516 7.33 2.146 7.01417 2.1935 5.95917C2.31766 3.27 3.58016 1.98333 6.29266 1.86C7.34766 1.8125 7.6635 1.8025 10.3335 1.8025ZM5.1985 10C5.1985 7.16417 7.49766 4.865 10.3335 4.865C13.1693 4.865 15.4685 7.16417 15.4685 10C15.4685 12.8367 13.1693 15.1358 10.3335 15.1358C7.49766 15.1358 5.1985 12.8358 5.1985 10ZM10.3335 13.3333C8.49266 13.3333 7.00016 11.8417 7.00016 10C7.00016 8.15917 8.49266 6.66667 10.3335 6.66667C12.1743 6.66667 13.6668 8.15917 13.6668 10C13.6668 11.8417 12.1743 13.3333 10.3335 13.3333ZM14.471 4.6625C14.471 4 15.0085 3.4625 15.6718 3.4625C16.3343 3.4625 16.871 4 16.871 4.6625C16.871 5.325 16.3343 5.8625 15.6718 5.8625C15.0085 5.8625 14.471 5.325 14.471 4.6625Z" fill="white"/>
</svg>
