<svg width="21" height="18" viewBox="0 0 21 18" fill="none" xmlns="http://www.w3.org/2000/svg">
<path d="M20.6665 2.79721C19.9307 3.12388 19.1398 3.34388 18.3098 3.44305C19.1573 2.93555 19.8082 2.13138 20.114 1.17305C19.3215 1.64305 18.4432 1.98471 17.5082 2.16888C16.7607 1.37138 15.6932 0.873047 14.5132 0.873047C11.864 0.873047 9.91734 3.34471 10.5157 5.91055C7.1065 5.73971 4.08317 4.10638 2.059 1.62388C0.984004 3.46805 1.5015 5.88055 3.32817 7.10221C2.6565 7.08055 2.02317 6.89638 1.47067 6.58888C1.42567 8.48971 2.78817 10.268 4.7615 10.6639C4.184 10.8205 3.5515 10.8572 2.90817 10.7339C3.42984 12.3639 4.94484 13.5497 6.7415 13.583C5.0165 14.9355 2.84317 15.5397 0.666504 15.283C2.48234 16.4472 4.63984 17.1264 6.9565 17.1264C14.5748 17.1264 18.879 10.6922 18.619 4.92138C19.4207 4.34221 20.1165 3.61971 20.6665 2.79721Z" fill="white"/>
</svg>
